<?xml version="1.0" encoding="UTF-8"?>
<svg width="1200px" height="630px" viewBox="0 0 1200 630" xmlns="http://www.w3.org/2000/svg" xmlns:xlink="http://www.w3.org/1999/xlink" version="1.1">
 <!-- Generated by Pixelmator Pro 2.1.5 -->
 <path id="Bottom-edge" d="M1049 241 C1049.257 251.749 1051.768 267.769 1038 271 903.808 302.492 682.927 336.481 481 379 471.671 380.964 465.989 389.059 458 396 421.538 427.676 375.452 450.989 328 460 272.14 470.607 165.211 453.145 160 443 L160 437 M189 434 C186.806 431.112 133.585 424.656 132 419 131.518 417.28 131.582 413.188 131 411 M166 406 C163.559 400.79 117.236 395.385 113.081 391.356 110.15 388.514 109.381 381.992 110 381 M157 374 C155.479 367.521 112.006 365.551 112 360 111.998 358.201 110.915 355.155 111 353 M157 336 C155.528 331.586 135.432 333.655 123 331 118.632 330.067 118.301 326.566 119 325 L119 325" fill="none" stroke="#000000" stroke-width="3" stroke-opacity="1" stroke-linejoin="round" stroke-linecap="round"/>
 <path id="Top-edge" d="M119 319 C121.902 312.498 172.31 276.416 255 262 337.82 247.561 366.155 267.43 409 277 421.366 279.762 434.602 280.617 447 278 621.27 241.214 800.233 217.518 973 193 998.438 189.39 1031.355 200.634 1044 223 1050.96 235.311 1051.768 261.769 1038 265 903.808 296.492 682.927 330.481 481 373 471.671 374.964 465.989 383.059 458 390 421.538 421.676 375.452 444.989 328 454 272.14 464.607 166.211 447.145 161 437 156.45 428.143 197.933 435.913 197 432 195.359 425.118 133.585 418.656 132 413 131.518 411.28 128.708 407.987 133.784 407.127 146.21 405.021 174.779 406.789 174 404 171.501 395.048 117.236 389.385 113.081 385.356 110.15 382.514 107.388 377.08 113.541 376.333 128.655 374.497 164.021 376.209 163 371 161.479 363.24 112.006 359.551 112 354 111.998 352.201 110.868 348.913 114.311 347.274 128.08 340.717 165.641 336.921 164 332 162.528 327.586 135.432 327.655 123 325 118.632 324.067 118.301 320.566 119 319 Z" fill="none" stroke="#000000" stroke-width="3" stroke-opacity="1" stroke-linejoin="round" stroke-linecap="round"/>
 <path id="Path" d="M449.592 354.789 C428.613 382.49 399.01 405.334 367 416 331.749 427.746 274.628 437.828 235 409 217.355 396.164 210.815 375.1 223 357 244.637 324.86 297.596 316.954 347 321 367.694 322.695 392.079 333.353 415 332 429.535 331.142 444.775 319.668 457 320 465.541 320.232 473.143 323.482 474 330 475.511 341.497 456.593 345.544 449.592 354.789 Z" fill="none" stroke="#000000" stroke-width="3" stroke-opacity="1" stroke-linejoin="round" stroke-linecap="round"/>
 <path id="Path-1" d="M404 376 C405.835 389.772 362.701 409.046 337.871 411.663 328.138 412.689 307.141 416.042 292.583 414.123 278.302 412.24 256.685 404.344 258 390 260.39 363.926 311.062 363.55 331 361 349.956 358.575 401.802 359.502 404 376 Z" fill="none" stroke="#000000" stroke-width="3" stroke-opacity="1" stroke-linejoin="round" stroke-linecap="round"/>
 <path id="Path-2" d="M509.018 346.073 C495.948 348.289 469.037 353.944 459.947 365.418 435.672 396.059 394.775 419.008 372.03 427.011 346.143 436.12 310.856 441.253 280.252 437.768 255.894 434.994 234.722 430.357 217 417 206.107 408.791 197.069 394.179 194.019 383.143 191.3 373.308 189.826 362.118 193.341 352.538 195.85 345.697 198.971 342.554 207.842 336.181 221.343 326.482 202.567 320.42 208.378 311.5 218.826 295.463 275.096 284.797 319 284 343.081 283.563 383.757 291.838 404 299 423.416 305.869 437.04 302.086 450 300 597.261 276.294 784.404 239.139 953 214 974.919 210.732 1007.871 208.12 1016 226 1027.049 250.302 1013.463 253.14 975 261 863.278 283.831 565.372 336.521 509.018 346.073 Z" fill="none" stroke="#000000" stroke-width="3" stroke-opacity="1" stroke-linejoin="round" stroke-linecap="round"/>
 <path id="Path-3" d="M467 297 C467 297 437.646 300.847 422 299 411.111 297.715 399.511 291.065 388 288 369.237 283.005 353.11 278.391 331 276 307.139 273.42 282.798 272.893 259 276 237.113 278.857 217.402 284.273 195 293 186.387 296.355 165.288 303.134 165 309 164.546 318.25 187.214 316.361 189 326 190.095 331.909 183.54 337.063 179 341 172.58 346.568 155.816 349.291 156 352 156.383 357.644 175.777 356.941 180 365 181.975 368.768 181.319 374.407 178.611 377.687 174.519 382.643 159.776 379.654 160.189 383.375 160.586 386.947 176.906 387.435 183 393 187.184 396.821 193.14 402.753 191 408 188.918 413.104 175.162 411.284 175.233 412.985 175.364 416.143 190.433 414.491 197 418 203.863 421.668 215.013 426.284 214 434 213.359 438.88 203.797 435.544 205 439 206.295 442.721 242 446 242 446 242 446 276.68 450.214 294 449 326.909 446.694 342.78 444.005 365.677 435.904 379.395 431.051 398.783 423.031 413.38 413.173 429.371 402.374 442.893 388.161 456 374 460.031 369.644 467 360 467 360" fill="none" stroke="#000000" stroke-width="3" stroke-opacity="1" stroke-linejoin="round" stroke-linecap="round"/>
 <path id="Path-4" d="M498 320 C496.822 313.354 515 309 515 309 L959 231 C959 231 985.139 223.742 988 233 990.382 240.709 969 248 969 248 L520 325 C520 325 499.312 327.405 498 320 Z" fill="none" stroke="#000000" stroke-width="3" stroke-opacity="1" stroke-linejoin="round" stroke-linecap="round"/>
</svg>
