<?xml version="1.0" encoding="UTF-8"?>
<svg width="1250px" height="293px" viewBox="0 0 1250 293" xmlns="http://www.w3.org/2000/svg" xmlns:xlink="http://www.w3.org/1999/xlink" version="1.1">
 <!-- Generated by Pixelmator Pro 2.1.5 -->
 <path id="Bottom-edge" d="M1116 63 C1116.257 73.749 1118.768 89.769 1105 93 970.808 124.492 749.927 158.481 548 201 538.671 202.964 532.989 211.059 525 218 488.538 249.676 442.452 272.989 395 282 339.14 292.607 232.211 275.145 227 265 L227 259 M256 256 C253.806 253.112 200.585 246.656 199 241 198.518 239.28 198.582 235.188 198 233 M233 228 C230.559 222.79 184.236 217.385 180.081 213.356 177.15 210.514 176.381 203.992 177 203 M224 196 C222.479 189.521 179.006 187.551 179 182 178.998 180.201 177.915 177.155 178 175 M224 158 C222.528 153.586 202.432 155.655 190 153 185.632 152.067 185.301 148.566 186 147 L186 147" fill="none" stroke="#000000" stroke-width="3" stroke-opacity="1" stroke-linejoin="round" stroke-linecap="round"/>
 <path id="Top-edge" d="M186 141 C188.902 134.498 239.31 98.416 322 84 404.82 69.561 433.155 89.43 476 99 488.366 101.762 501.602 102.617 514 100 688.27 63.214 867.233 39.518 1040 15 1065.438 11.39 1098.355 22.634 1111 45 1117.96 57.311 1118.768 83.769 1105 87 970.808 118.492 749.927 152.481 548 195 538.671 196.964 532.989 205.059 525 212 488.538 243.676 442.452 266.989 395 276 339.14 286.607 233.211 269.145 228 259 223.45 250.143 264.933 257.913 264 254 262.359 247.118 200.585 240.656 199 235 198.518 233.28 195.708 229.987 200.784 229.127 213.21 227.021 241.779 228.789 241 226 238.501 217.048 184.236 211.385 180.081 207.356 177.15 204.514 174.388 199.08 180.541 198.333 195.655 196.497 231.021 198.209 230 193 228.479 185.24 179.006 181.551 179 176 178.998 174.201 177.868 170.913 181.311 169.274 195.08 162.717 232.641 158.921 231 154 229.528 149.586 202.432 149.655 190 147 185.632 146.067 185.301 142.566 186 141 Z" fill="none" stroke="#000000" stroke-width="3" stroke-opacity="1" stroke-linejoin="round" stroke-linecap="round"/>
 <path id="Path" d="M516.592 176.789 C495.613 204.49 466.01 227.334 434 238 398.749 249.746 341.628 259.828 302 231 284.355 218.164 277.815 197.1 290 179 311.637 146.86 364.596 138.954 414 143 434.694 144.695 459.079 155.353 482 154 496.535 153.142 511.775 141.668 524 142 532.541 142.232 540.143 145.482 541 152 542.511 163.497 523.593 167.544 516.592 176.789 Z" fill="none" stroke="#000000" stroke-width="3" stroke-opacity="1" stroke-linejoin="round" stroke-linecap="round"/>
 <path id="Path-1" d="M471 198 C472.835 211.772 429.701 231.046 404.871 233.663 395.138 234.689 374.141 238.042 359.583 236.123 345.302 234.24 323.685 226.344 325 212 327.39 185.926 378.062 185.55 398 183 416.956 180.575 468.802 181.502 471 198 Z" fill="none" stroke="#000000" stroke-width="3" stroke-opacity="1" stroke-linejoin="round" stroke-linecap="round"/>
 <path id="Path-2" d="M576.018 168.073 C562.948 170.289 536.037 175.944 526.947 187.418 502.672 218.059 461.775 241.008 439.03 249.011 413.143 258.12 377.856 263.253 347.252 259.768 322.894 256.994 301.722 252.356 284 239 273.107 230.791 264.069 216.179 261.019 205.143 258.3 195.308 256.826 184.118 260.341 174.538 262.85 167.697 265.971 164.554 274.842 158.181 288.343 148.482 269.567 142.42 275.378 133.5 285.826 117.463 342.096 106.797 386 106 410.081 105.563 450.757 113.838 471 121 490.416 127.869 504.04 124.086 517 122 664.261 98.294 851.404 61.139 1020 36 1041.919 32.732 1074.871 30.12 1083 48 1094.049 72.302 1080.463 75.14 1042 83 930.278 105.831 632.372 158.521 576.018 168.073 Z" fill="none" stroke="#000000" stroke-width="3" stroke-opacity="1" stroke-linejoin="round" stroke-linecap="round"/>
 <path id="Path-3" d="M534 119 C534 119 504.646 122.847 489 121 478.111 119.715 466.511 113.065 455 110 436.237 105.005 420.11 100.391 398 98 374.139 95.42 349.798 94.893 326 98 304.113 100.857 284.402 106.273 262 115 253.387 118.355 232.288 125.134 232 131 231.546 140.25 254.214 138.361 256 148 257.095 153.909 250.54 159.063 246 163 239.58 168.568 222.816 171.291 223 174 223.383 179.644 242.777 178.941 247 187 248.975 190.768 248.319 196.407 245.611 199.687 241.519 204.643 226.776 201.653 227.189 205.375 227.586 208.947 243.906 209.435 250 215 254.184 218.821 260.14 224.753 258 230 255.918 235.104 242.162 233.284 242.233 234.985 242.364 238.143 257.433 236.491 264 240 270.863 243.668 282.013 248.285 281 256 280.359 260.88 270.797 257.544 272 261 273.295 264.721 309 268 309 268 309 268 343.68 272.214 361 271 393.909 268.694 409.78 266.005 432.677 257.904 446.395 253.051 465.783 245.031 480.38 235.173 496.371 224.374 509.893 210.161 523 196 527.031 191.644 534 182 534 182" fill="none" stroke="#000000" stroke-width="3" stroke-opacity="1" stroke-linejoin="round" stroke-linecap="round"/>
 <path id="Path-4" d="M565 142 C563.822 135.354 582 131 582 131 L1026 53 C1026 53 1052.139 45.742 1055 55 1057.382 62.709 1036 70 1036 70 L587 147 C587 147 566.312 149.405 565 142 Z" fill="none" stroke="#000000" stroke-width="3" stroke-opacity="1" stroke-linejoin="round" stroke-linecap="round"/>
</svg>
